# xmcd
#
# Track frame offsets:
# 150
# 15599
# 32156
# 62324
# 79364
# 98209
# 115188
# 138375
# 151571
# 169568
# 190469
# 208224
#
# Disc length: 2985 seconds
#
# Revision: 1
# Processed by: cddbd v1.5.1PL0 Copyright (c) Steve Scherf et al.
# Submitted via: Easy CD Ripper v2.37
#
DISCID=960ba70c
DTITLE=One Shot Johnny - Feelin' Dangerous
DYEAR=2002
DGENRE=Blues
TTITLE0=Feelin' Dangerous
TTITLE1=Hey, Dottie Lou
TTITLE2=Natural Man
TTITLE3='53 Flathead Ford
TTITLE4=Ruby (Reefer and Roses)
TTITLE5=Loosen Up A Little
TTITLE6=Everything I Wanted
TTITLE7=I Don't Make Excuses
TTITLE8=Hurry Up Baby
TTITLE9=Turn To Gray
TTITLE10=Better Day
TTITLE11=Crossing Over
EXTD=www.oneshotjohnny.net
EXTT0=
EXTT1=
EXTT2=
EXTT3=
EXTT4=
EXTT5=
EXTT6=
EXTT7=
EXTT8=
EXTT9=
EXTT10=
EXTT11=
PLAYORDER=
